<svg data-v-423bf9ae="" xmlns="http://www.w3.org/2000/svg" viewBox="0 0 485.1632981556106 768" class="iconAbove"><!----><!----><!----><g data-v-423bf9ae="" id="6e4a6b92-74c3-48eb-8e59-88f07aa286d6" fill="#ffffff" transform="matrix(3.76884420304397,0,0,3.76884420304397,-2.412066731950347,651.6696974557535)"><path d="M6.17 21.76L6.17 21.76Q7.08 21.76 7.61 21.24L7.61 21.24L7.61 21.24Q8.13 20.72 8.13 19.81L8.13 19.81L8.13 19.81Q8.13 18.56 7.51 17.77L7.51 17.77L7.51 17.77Q6.89 16.97 5.68 16.97L5.68 16.97L5.68 16.97Q4.76 16.97 4.03 17.49L4.03 17.49L4.03 25.93L6.26 26.52L5.94 27.15L0.81 27.15L0.81 26.64L2.13 25.61L2.13 17.23L0.64 16.76L0.97 16.13L2.73 16.13L2.73 16.13Q4.06 16.13 5.35 16.04L5.35 16.04L5.35 16.04Q6.33 15.99 6.78 15.99L6.78 15.99L6.78 15.99Q7.78 15.99 8.56 16.41L8.56 16.41L8.56 16.41Q9.34 16.83 9.77 17.55L9.77 17.55L9.77 17.55Q10.19 18.27 10.19 19.17L10.19 19.17L10.19 19.17Q10.19 20.15 9.46 21.02L9.46 21.02L9.46 21.02Q8.74 21.90 7.62 22.39L7.62 22.39L7.62 22.39Q6.50 22.88 5.42 22.82L5.42 22.82L4.77 22.37L5.10 21.74L6.16 21.74L6.17 21.76ZM15.61 21.11L15.61 21.11Q15.32 21.11 14.99 21.27L14.99 21.27L14.99 21.27Q14.67 21.42 14.27 21.83L14.27 21.83L14.27 25.93L16.25 26.52L15.95 27.15L11.20 27.15L11.20 26.64L12.45 25.65L12.45 21.84L11.20 21.10L11.20 20.59L13.69 19.40L14.15 21.10L15.57 19.64L15.57 19.64Q15.89 19.53 16.32 19.53L16.32 19.53L16.32 19.53Q16.84 19.53 17.23 19.80L17.23 19.80L17.23 19.80Q17.61 20.06 17.81 20.55L17.81 20.55L16.80 21.81L16.20 21.81L16.20 21.81Q16.14 21.43 16.00 21.27L16.00 21.27L16.00 21.27Q15.86 21.11 15.61 21.11L15.61 21.11ZM23.06 19.53L23.06 19.53Q24.01 19.53 24.76 20.01L24.76 20.01L24.76 20.01Q25.51 20.50 25.93 21.32L25.93 21.32L25.93 21.32Q26.35 22.15 26.35 23.16L26.35 23.16L26.35 23.16Q26.35 24.25 25.68 25.19L25.68 25.19L25.68 25.19Q25.02 26.14 24.01 26.71L24.01 26.71L24.01 26.71Q23.00 27.27 22.06 27.27L22.06 27.27L22.06 27.27Q21.13 27.27 20.38 26.79L20.38 26.79L20.38 26.79Q19.63 26.31 19.20 25.48L19.20 25.48L19.20 25.48Q18.77 24.65 18.77 23.65L18.77 23.65L18.77 23.65Q18.77 22.55 19.44 21.61L19.44 21.61L19.44 21.61Q20.10 20.66 21.11 20.10L21.11 20.10L21.11 20.10Q22.12 19.53 23.06 19.53L23.06 19.53ZM22.25 20.80L22.25 20.80Q20.73 20.80 20.73 22.97L20.73 22.97L20.73 22.97Q20.73 24.28 21.29 25.14L21.29 25.14L21.29 25.14Q21.84 26.01 22.88 26.01L22.88 26.01L22.88 26.01Q23.62 26.01 24.00 25.45L24.00 25.45L24.00 25.45Q24.37 24.89 24.37 23.81L24.37 23.81L24.37 23.81Q24.37 22.53 23.82 21.66L23.82 21.66L23.82 21.66Q23.27 20.80 22.25 20.80L22.25 20.80ZM32.42 27.29L32.42 27.29Q31.71 27.29 31.09 26.87L31.09 26.87L31.09 29.48L33.08 30.07L32.77 30.70L28.03 30.70L28.03 30.20L29.27 29.20L29.27 21.84L28.03 21.10L28.03 20.59L30.52 19.40L31.01 21.20L32.96 19.64L32.96 19.64Q33.40 19.53 33.98 19.53L33.98 19.53L33.98 19.53Q34.75 19.53 35.38 20.01L35.38 20.01L35.38 20.01Q36.01 20.50 36.36 21.33L36.36 21.33L36.36 21.33Q36.71 22.16 36.71 23.16L36.71 23.16L36.71 23.16Q36.71 24.25 36.04 25.19L36.04 25.19L36.04 25.19Q35.38 26.14 34.37 26.71L34.37 26.71L34.37 26.71Q33.36 27.27 32.42 27.27L32.42 27.27L32.42 27.29ZM33.22 21L33.22 21Q32.70 21 32.22 21.19L32.22 21.19L32.22 21.19Q31.74 21.38 31.09 21.92L31.09 21.92L31.09 24.28L31.09 24.28Q31.09 25.02 31.65 25.52L31.65 25.52L31.65 25.52Q32.20 26.03 33.24 26.03L33.24 26.03L33.24 26.03Q33.99 26.03 34.37 25.47L34.37 25.47L34.37 25.47Q34.75 24.92 34.75 23.84L34.75 23.84L34.75 23.84Q34.75 22.64 34.35 21.82L34.35 21.82L34.35 21.82Q33.95 21 33.22 21L33.22 21ZM45.75 25.23L43.34 27.15L43.34 27.15Q42.74 27.27 41.89 27.27L41.89 27.27L41.89 27.27Q40.95 27.27 40.20 26.79L40.20 26.79L40.20 26.79Q39.45 26.31 39.02 25.48L39.02 25.48L39.02 25.48Q38.60 24.65 38.60 23.65L38.60 23.65L38.60 23.65Q38.60 22.55 39.26 21.61L39.26 21.61L39.26 21.61Q39.93 20.66 40.94 20.10L40.94 20.10L40.94 20.10Q41.94 19.53 42.88 19.53L42.88 19.53L42.88 19.53Q44.24 19.53 44.99 20.59L44.99 20.59L44.99 20.59Q45.74 21.66 45.72 23.44L45.72 23.44L40.57 23.44L40.57 23.44Q40.67 24.56 41.22 25.26L41.22 25.26L41.22 25.26Q41.76 25.97 42.70 25.97L42.70 25.97L42.70 25.97Q43.62 25.97 45.33 24.65L45.33 24.65L45.75 25.23ZM42.08 20.80L42.08 20.80Q40.64 20.80 40.57 22.79L40.57 22.79L43.72 22.79L43.72 22.79Q43.60 22.08 43.46 21.69L43.46 21.69L43.46 21.69Q43.33 21.29 43.01 21.05L43.01 21.05L43.01 21.05Q42.69 20.80 42.07 20.80L42.07 20.80L42.08 20.80ZM51.86 21.11L51.86 21.11Q51.56 21.11 51.24 21.27L51.24 21.27L51.24 21.27Q50.92 21.42 50.51 21.83L50.51 21.83L50.51 25.93L52.50 26.52L52.19 27.15L47.45 27.15L47.45 26.64L48.69 25.65L48.69 21.84L47.45 21.10L47.45 20.59L49.94 19.40L50.40 21.10L51.81 19.64L51.81 19.64Q52.14 19.53 52.57 19.53L52.57 19.53L52.57 19.53Q53.09 19.53 53.47 19.80L53.47 19.80L53.47 19.80Q53.86 20.06 54.05 20.55L54.05 20.55L53.05 21.81L52.44 21.81L52.44 21.81Q52.39 21.43 52.25 21.27L52.25 21.27L52.25 21.27Q52.11 21.11 51.86 21.11L51.86 21.11ZM60.40 26.04L58.98 27.16L58.98 27.16Q58.63 27.27 58.13 27.27L58.13 27.27L58.13 27.27Q56.92 27.27 56.37 26.66L56.37 26.66L56.37 26.66Q55.82 26.05 55.82 24.78L55.82 24.78L55.82 20.73L54.31 20.73L54.31 20.13L57.04 17.00L57.64 17.00L57.64 20.09L60.16 20.09L60.16 20.73L57.64 20.73L57.64 24.89L57.64 24.89Q57.64 26.00 58.73 26.00L58.73 26.00L58.73 26.00Q59.02 26.00 59.29 25.88L59.29 25.88L59.29 25.88Q59.56 25.76 59.98 25.45L59.98 25.45L60.40 26.04ZM68.87 19.67L68.87 20.17L65.32 27.13L62.33 30.83L61.73 30.35L61.73 30.35Q62.50 29.50 62.91 28.85L62.91 28.85L62.91 28.85Q63.32 28.21 63.49 27.57L63.49 27.57L63.49 27.57Q63.66 26.92 63.67 26.05L63.67 26.05L61.95 21.85L60.63 21.08L60.63 20.58L63.17 19.40L63.70 21.52L65.38 25.59L67.30 21.66L65.41 20.30L65.72 19.67L68.87 19.67ZM77.18 17.67L77.18 25.75L77.18 25.75Q77.18 26.31 77.22 26.78L77.22 26.78L77.22 26.78Q77.25 27.24 77.31 27.41L77.31 27.41L74.52 30.83L73.92 30.35L73.92 30.35Q74.72 29.36 75.00 28.65L75.00 28.65L75.00 28.65Q75.28 27.94 75.28 26.92L75.28 26.92L75.28 17.28L73.53 16.76L73.84 16.13L78.51 16.13L78.51 16.63L77.18 17.67ZM84.41 19.53L84.41 19.53Q85.36 19.53 86.11 20.01L86.11 20.01L86.11 20.01Q86.86 20.50 87.28 21.32L87.28 21.32L87.28 21.32Q87.70 22.15 87.70 23.16L87.70 23.16L87.70 23.16Q87.70 24.25 87.03 25.19L87.03 25.19L87.03 25.19Q86.37 26.14 85.36 26.71L85.36 26.71L85.36 26.71Q84.35 27.27 83.41 27.27L83.41 27.27L83.41 27.27Q82.47 27.27 81.72 26.79L81.72 26.79L81.72 26.79Q80.98 26.31 80.55 25.48L80.55 25.48L80.55 25.48Q80.12 24.65 80.12 23.65L80.12 23.65L80.12 23.65Q80.12 22.55 80.79 21.61L80.79 21.61L80.79 21.61Q81.45 20.66 82.46 20.10L82.46 20.10L82.46 20.10Q83.47 19.53 84.41 19.53L84.41 19.53ZM83.59 20.80L83.59 20.80Q82.08 20.80 82.08 22.97L82.08 22.97L82.08 22.97Q82.08 24.28 82.63 25.14L82.63 25.14L82.63 25.14Q83.19 26.01 84.22 26.01L84.22 26.01L84.22 26.01Q84.97 26.01 85.34 25.45L85.34 25.45L85.34 25.45Q85.72 24.89 85.72 23.81L85.72 23.81L85.72 23.81Q85.72 22.53 85.17 21.66L85.17 21.66L85.17 21.66Q84.62 20.80 83.59 20.80L83.59 20.80ZM97.79 26.50L97.47 27.13L94.71 27.13L94.71 25.72L92.97 27.16L92.97 27.16Q92.71 27.27 92.19 27.27L92.19 27.27L92.19 27.27Q91.21 27.27 90.64 26.69L90.64 26.69L90.64 26.69Q90.06 26.11 90.06 25.12L90.06 25.12L90.06 21.84L88.82 21.11L88.82 20.61L91.28 19.43L91.88 19.43L91.88 24.35L91.88 24.35Q91.88 25.10 92.12 25.40L92.12 25.40L92.12 25.40Q92.36 25.70 92.95 25.70L92.95 25.70L92.95 25.70Q93.35 25.70 93.76 25.55L93.76 25.55L93.76 25.55Q94.16 25.40 94.71 24.96L94.71 24.96L94.71 21.84L93.46 21.11L93.46 20.61L95.93 19.43L96.53 19.43L96.53 26.04L97.79 26.50ZM103.38 21.11L103.38 21.11Q103.08 21.11 102.76 21.27L102.76 21.27L102.76 21.27Q102.44 21.42 102.03 21.83L102.03 21.83L102.03 25.93L104.02 26.52L103.71 27.15L98.97 27.15L98.97 26.64L100.21 25.65L100.21 21.84L98.97 21.10L98.97 20.59L101.46 19.40L101.92 21.10L103.33 19.64L103.33 19.64Q103.66 19.53 104.09 19.53L104.09 19.53L104.09 19.53Q104.61 19.53 104.99 19.80L104.99 19.80L104.99 19.80Q105.38 20.06 105.57 20.55L105.57 20.55L104.57 21.81L103.96 21.81L103.96 21.81Q103.91 21.43 103.77 21.27L103.77 21.27L103.77 21.27Q103.63 21.11 103.38 21.11L103.38 21.11ZM115.46 26.52L115.14 27.15L112.38 27.15L112.38 22.47L112.38 22.47Q112.38 21.73 112.14 21.43L112.14 21.43L112.14 21.43Q111.90 21.13 111.31 21.13L111.31 21.13L111.31 21.13Q110.88 21.13 110.45 21.28L110.45 21.28L110.45 21.28Q110.01 21.43 109.44 21.87L109.44 21.87L109.44 26.05L110.70 26.52L110.38 27.15L106.37 27.15L106.37 26.64L107.62 25.65L107.62 21.84L106.37 21.10L106.37 20.59L108.86 19.40L109.35 21.18L111.29 19.64L111.29 19.64Q111.61 19.53 112.07 19.53L112.07 19.53L112.07 19.53Q113.05 19.53 113.62 20.11L113.62 20.11L113.62 20.11Q114.20 20.69 114.20 21.69L114.20 21.69L114.20 26.04L115.46 26.52ZM124.26 26.50L123.96 27.13L121.18 27.13L121.18 25.91L119.60 27.16L119.60 27.16Q119.32 27.27 118.90 27.27L118.90 27.27L118.90 27.27Q117.67 27.27 117.12 26.66L117.12 26.66L117.12 26.66Q116.58 26.05 116.58 25.19L116.58 25.19L116.58 25.19Q116.58 24.68 116.93 24.19L116.93 24.19L116.93 24.19Q117.28 23.69 117.95 23.24L117.95 23.24L121.18 23.24L121.18 22.48L121.18 22.48Q121.18 20.85 119.43 20.85L119.43 20.85L119.43 20.85Q118.55 20.85 117.22 21.84L117.22 21.84L116.80 21.25L118.80 19.67L118.80 19.67Q119.45 19.53 120.20 19.53L120.20 19.53L120.20 19.53Q121.53 19.53 122.27 20.17L122.27 20.17L122.27 20.17Q123.00 20.82 123.00 22.04L123.00 22.04L123.00 26.01L124.26 26.50ZM119.41 25.94L119.41 25.94Q120.23 25.94 121.18 25.20L121.18 25.20L121.18 23.88L118.75 23.88L118.75 23.88Q118.58 24.09 118.51 24.30L118.51 24.30L118.51 24.30Q118.44 24.51 118.44 24.77L118.44 24.77L118.44 24.77Q118.44 25.26 118.71 25.60L118.71 25.60L118.71 25.60Q118.97 25.94 119.41 25.94L119.41 25.94ZM129.37 26.52L129.05 27.15L125.05 27.15L125.05 26.64L126.29 25.65L126.29 17.22L125.05 16.35L125.05 15.85L127.51 14.91L128.11 14.91L128.11 26.04L129.37 26.52Z"></path></g><!----><g data-v-423bf9ae="" id="be53c9e5-b5fc-4967-8569-f6e1c3c75e2d" transform="matrix(2.7786151462131077,0,0,2.7786151462131077,8.848888045055276,0.5690122138943252)" stroke="none" fill="#FFCC43"><path d="M126.795 249.872l-5.068-6.189 26.459-21.67 3.933-.654c2.383.891 4.517.809 6.008-.227 1.556-1.08 2.412-3.164 2.412-5.869v-145c0-6.626-5.137-14.141-11.217-16.408l-.146-.059L39.823 8.012c-8.66-.255-17.459 3.097-23.702 9.031C10.884 22.02 8 28.378 8 34.947v4H0v-4c0-8.783 3.768-17.201 10.609-23.703C18.576 3.673 29.911-.513 40.907.05l1.342.305 109.947 46.033c9.17 3.467 16.342 13.936 16.342 23.875v145c0 5.326-2.132 9.859-5.85 12.441-3.078 2.135-7.019 2.771-11.074 1.84l-24.819 20.328z"></path><path d="M1.038 38.491v145c0 8.08 6.053 16.912 13.493 19.688l105.042 46.072c1.457.543 2.91.824 4.293.824 5.277 0 8.823-4.104 8.823-10.209v-145c0-8.08-6.053-16.912-13.492-19.688l-9.267-4.064c-1.756 1.523-4.893 5.444-4.893 14.093v56l-18-25.25-13.25 11.25s-.169-34.875-.044-50.25c-.037-10.146 1.992-16.831 5.298-19.391L14.155 29.104c-1.457-.543-2.91-.823-4.293-.823-5.278 0-8.824 4.103-8.824 10.21z"></path><path d="M4.475 29.498C2.76 30.81 1.495 32.787.91 35.272c.805-1.781 2.093-3.789 3.565-5.774z"></path></g><!----></svg>